<?xml version="1.0" encoding="UTF-8" standalone="no"?>
<!-- Created with Inkscape (http://www.inkscape.org/) -->

<svg
   xmlns:dc="http://purl.org/dc/elements/1.1/"
   xmlns:cc="http://creativecommons.org/ns#"
   xmlns:rdf="http://www.w3.org/1999/02/22-rdf-syntax-ns#"
   xmlns:svg="http://www.w3.org/2000/svg"
   xmlns="http://www.w3.org/2000/svg"
   xmlns:sodipodi="http://sodipodi.sourceforge.net/DTD/sodipodi-0.dtd"
   xmlns:inkscape="http://www.inkscape.org/namespaces/inkscape"
   width="310"
   height="150"
   id="svg2996"
   version="1.1"
   inkscape:version="0.48.4 r9939"
   sodipodi:docname="tile.wide.svg"
   inkscape:export-filename="C:\Users\Krystian\Desktop\tile.wide.png"
   inkscape:export-xdpi="90"
   inkscape:export-ydpi="90">
  <defs
     id="defs2998" />
  <sodipodi:namedview
     id="base"
     pagecolor="#ffffff"
     bordercolor="#666666"
     borderopacity="1.0"
     inkscape:pageopacity="0.0"
     inkscape:pageshadow="2"
     inkscape:zoom="0.35"
     inkscape:cx="-786.42857"
     inkscape:cy="520"
     inkscape:document-units="px"
     inkscape:current-layer="layer1"
     showgrid="false"
     inkscape:window-width="1366"
     inkscape:window-height="715"
     inkscape:window-x="-8"
     inkscape:window-y="-8"
     inkscape:window-maximized="1" />
  <metadata
     id="metadata3001">
    <rdf:RDF>
      <cc:Work
         rdf:about="">
        <dc:format>image/svg+xml</dc:format>
        <dc:type
           rdf:resource="http://purl.org/dc/dcmitype/StillImage" />
        <dc:title></dc:title>
      </cc:Work>
    </rdf:RDF>
  </metadata>
  <g
     inkscape:label="Layer 1"
     inkscape:groupmode="layer"
     id="layer1"
     transform="translate(0,-902.36218)">
    <path
       d="m 180.87489,983.11224 c 0,15.87818 -12.87177,28.74996 -28.74993,28.74996 -15.87817,0 -28.74994,-12.87178 -28.74994,-28.74996 0,-14.908 11.34668,-27.16568 25.87501,-28.60813 l 0,-3.01693 -8.625,0 0,-8.625 22.99987,0 0,8.625 -8.62501,0 0,3.01693 c 5.78239,0.57415 11.06071,2.8615 15.32019,6.34709 l 2.07435,-2.07436 -4.06591,-4.06592 6.09888,-6.09868 12.19758,12.19756 -6.09889,6.0987 -4.06574,-4.06573 -2.07436,2.07435 c 4.05576,4.95602 6.48891,11.29149 6.48891,18.19512 z m -50.1225,-2.87494 6.99751,0 0,5.74988 -6.99751,0 c 1.28032,9.60898 8.88866,17.21732 18.49745,18.49762 l 0,-6.99768 5.75005,0 0,6.99748 c 9.60899,-1.2801 17.21732,-8.88844 18.49745,-18.49742 l -6.9975,0 0,-5.74988 6.9975,0 c -1.2803,-9.60897 -8.88864,-17.21732 -18.49745,-18.49744 l 0,6.99732 -5.75005,0 0,-6.99751 c -9.60879,1.28031 -17.21713,8.88866 -18.49745,18.49763 z m 21.37257,-2.87512 c 3.17564,0 5.74988,2.57442 5.74988,5.75006 0,3.17563 -2.57424,5.75008 -5.74988,5.75008 l -11.50012,8.62498 5.75005,-14.37506 c 0,-3.17564 2.57443,-5.75006 5.75007,-5.75006 z"
       id="path3097"
       inkscape:connector-curvature="0"
       style="fill:#ffffff;fill-opacity:1;stroke-width:0.2;stroke-linejoin:round;display:inline"
       inkscape:export-xdpi="90"
       inkscape:export-ydpi="90" />
  </g>
</svg>
