<?xml version="1.0" encoding="UTF-8" standalone="no"?>
<!-- Created with Inkscape (http://www.inkscape.org/) -->

<svg
   xmlns:dc="http://purl.org/dc/elements/1.1/"
   xmlns:cc="http://creativecommons.org/ns#"
   xmlns:rdf="http://www.w3.org/1999/02/22-rdf-syntax-ns#"
   xmlns:svg="http://www.w3.org/2000/svg"
   xmlns="http://www.w3.org/2000/svg"
   xmlns:sodipodi="http://sodipodi.sourceforge.net/DTD/sodipodi-0.dtd"
   xmlns:inkscape="http://www.inkscape.org/namespaces/inkscape"
   width="30"
   height="30"
   id="svg2996"
   version="1.1"
   inkscape:version="0.48.4 r9939"
   sodipodi:docname="tile.medium.svg"
   inkscape:export-filename="C:\Users\Krystian\Desktop\tile_wide.png"
   inkscape:export-xdpi="90"
   inkscape:export-ydpi="90">
  <defs
     id="defs2998" />
  <sodipodi:namedview
     id="base"
     pagecolor="#ffffff"
     bordercolor="#666666"
     borderopacity="1.0"
     inkscape:pageopacity="0.0"
     inkscape:pageshadow="2"
     inkscape:zoom="2.8"
     inkscape:cx="-109.5707"
     inkscape:cy="8.3548383"
     inkscape:document-units="px"
     inkscape:current-layer="layer1"
     showgrid="false"
     inkscape:window-width="1366"
     inkscape:window-height="715"
     inkscape:window-x="-8"
     inkscape:window-y="-8"
     inkscape:window-maximized="1" />
  <metadata
     id="metadata3001">
    <rdf:RDF>
      <cc:Work
         rdf:about="">
        <dc:format>image/svg+xml</dc:format>
        <dc:type
           rdf:resource="http://purl.org/dc/dcmitype/StillImage" />
        <dc:title></dc:title>
      </cc:Work>
    </rdf:RDF>
  </metadata>
  <g
     inkscape:label="Layer 1"
     inkscape:groupmode="layer"
     id="layer1"
     transform="translate(0,-1022.3622)">
    <path
       d="m 23.624964,1039.279 c 0,5.2927 -4.290591,9.5832 -9.58331,9.5832 -5.2927214,0 -9.5833108,-4.2905 -9.5833108,-9.5832 0,-4.9693 3.7822266,-9.0553 8.6250008,-9.5363 l 0,-1.0055 -2.874999,0 0,-2.875 7.666624,0 0,2.875 -2.875003,0 0,1.0055 c 1.927462,0.1915 3.6869,0.954 5.106727,2.1158 l 0.691448,-0.6915 -1.355304,-1.3554 2.032963,-2.0326 4.065857,4.0658 -2.032965,2.0329 -1.355243,-1.3554 -0.691456,0.6916 c 1.351919,1.652 2.162973,3.7639 2.162973,6.0651 z m -16.7074984,-0.9586 2.3325032,0 0,1.9168 -2.3325032,0 c 0.4267718,3.203 2.9628842,5.739 6.1658164,6.166 l 0,-2.3328 1.916684,0 0,2.3327 c 3.202997,-0.4269 5.739102,-2.9629 6.165816,-6.1659 l -2.332503,0 0,-1.9168 2.332503,0 c -0.426772,-3.2027 -2.962882,-5.7389 -6.165816,-6.1657 l 0,2.3325 -1.916684,0 0,-2.3325 c -3.2029322,0.4268 -5.7390452,2.963 -6.1658164,6.1657 z m 7.1241884,-0.9582 c 1.058546,0 1.916627,0.8582 1.916627,1.9168 0,1.0585 -0.858081,1.9164 -1.916627,1.9164 l -3.833372,2.8751 1.916684,-4.7915 c 0,-1.0586 0.858141,-1.9168 1.916688,-1.9168 z"
       id="path3097"
       inkscape:connector-curvature="0"
       style="fill:#ffffff;fill-opacity:1;stroke-width:0.20000000000000001;stroke-linejoin:round;display:inline"
       inkscape:export-xdpi="90"
       inkscape:export-ydpi="90" />
  </g>
</svg>
